<svg width="210" height="212" viewBox="0 0 210 212" fill="none" xmlns="http://www.w3.org/2000/svg">
<g filter="url(#filter0_d_155_77)">
<path d="M123.211 179.408C115.138 193.463 94.8615 193.463 86.7894 179.408L32.1337 84.2375C24.0936 70.2376 34.1998 52.7793 50.3442 52.7793L159.656 52.7793C175.8 52.7793 185.906 70.2376 177.866 84.2375L123.211 179.408Z" fill="white"/>
<path d="M91.9925 176.42L37.3367 81.2495C31.5938 71.2495 38.8125 58.7793 50.3442 58.7793L159.656 58.7793C171.187 58.7793 178.406 71.2495 172.663 81.2495L118.008 176.42C112.242 186.459 97.7582 186.459 91.9925 176.42Z" stroke="#F1E363" stroke-width="12"/>
</g>
<path d="M92.0037 122.593C90.1248 122.593 88.432 122.127 86.9255 121.196C85.4021 120.265 84.1749 119.013 83.2439 117.439C82.3298 115.864 81.8728 114.104 81.8728 112.157V95.6789C81.8728 93.783 82.3383 92.0565 83.2693 90.4992C84.1833 88.925 85.4106 87.6724 86.9509 86.7414C88.4913 85.7934 90.1755 85.3195 92.0037 85.3195C93.9164 85.3195 95.643 85.7765 97.1833 86.6906C98.7237 87.6216 99.9425 88.8657 100.84 90.423C101.754 91.9803 102.211 93.7322 102.211 95.6789V98.0656C102.211 98.201 102.126 98.2687 101.957 98.2687H96.1169C95.9815 98.2687 95.9138 98.201 95.9138 98.0656V96.0851C95.9138 94.7648 95.5414 93.673 94.7966 92.8097C94.0518 91.9464 93.1208 91.5148 92.0037 91.5148C91.005 91.5148 90.1163 91.9295 89.3376 92.7589C88.559 93.5884 88.1697 94.5617 88.1697 95.6789V112.157C88.1697 113.291 88.5505 114.273 89.3123 115.103C90.074 115.915 90.9711 116.321 92.0037 116.321C93.1208 116.321 94.0518 115.924 94.7966 115.128C95.5414 114.316 95.9138 113.325 95.9138 112.157V109.593H92.283C92.0968 109.593 92.0037 109.508 92.0037 109.339V103.525C92.0037 103.355 92.0968 103.271 92.283 103.271H102.008C102.143 103.271 102.211 103.355 102.211 103.525V112.157C102.211 114.104 101.754 115.864 100.84 117.439C99.9086 119.013 98.6814 120.265 97.158 121.196C95.6345 122.127 93.9164 122.593 92.0037 122.593ZM115.515 122.593C113.67 122.593 111.969 122.119 110.412 121.171C108.872 120.223 107.627 118.962 106.679 117.388C105.748 115.797 105.283 114.053 105.283 112.157L105.334 95.6789C105.334 93.7492 105.799 92.0141 106.73 90.4738C107.644 88.9165 108.88 87.6724 110.437 86.7414C111.995 85.7934 113.687 85.3195 115.515 85.3195C117.411 85.3195 119.112 85.785 120.619 86.716C122.142 87.647 123.361 88.8996 124.275 90.4738C125.206 92.0311 125.672 93.7661 125.672 95.6789L125.722 112.157C125.722 114.053 125.265 115.788 124.351 117.362C123.42 118.954 122.185 120.223 120.644 121.171C119.104 122.119 117.394 122.593 115.515 122.593ZM115.515 116.321C116.565 116.321 117.479 115.898 118.258 115.052C119.036 114.189 119.426 113.224 119.426 112.157L119.375 95.6789C119.375 94.5278 119.011 93.5545 118.283 92.7589C117.555 91.9634 116.633 91.5656 115.515 91.5656C114.449 91.5656 113.535 91.9549 112.773 92.7336C112.011 93.5122 111.631 94.494 111.631 95.6789V112.157C111.631 113.291 112.011 114.273 112.773 115.103C113.535 115.915 114.449 116.321 115.515 116.321Z" fill="#4F8A57"/>
<defs>
<filter id="filter0_d_155_77" x="19.913" y="49.3793" width="170.174" height="155.97" filterUnits="userSpaceOnUse" color-interpolation-filters="sRGB">
<feFlood flood-opacity="0" result="BackgroundImageFix"/>
<feColorMatrix in="SourceAlpha" type="matrix" values="0 0 0 0 0 0 0 0 0 0 0 0 0 0 0 0 0 0 127 0" result="hardAlpha"/>
<feOffset dy="6"/>
<feGaussianBlur stdDeviation="4.7"/>
<feComposite in2="hardAlpha" operator="out"/>
<feColorMatrix type="matrix" values="0 0 0 0 0 0 0 0 0 0 0 0 0 0 0 0 0 0 0.25 0"/>
<feBlend mode="normal" in2="BackgroundImageFix" result="effect1_dropShadow_155_77"/>
<feBlend mode="normal" in="SourceGraphic" in2="effect1_dropShadow_155_77" result="shape"/>
</filter>
</defs>
</svg>
