<svg width="2150" height="2150" viewBox="0 0 2150 2150" fill="none" xmlns="http://www.w3.org/2000/svg">
<rect x="1074.8" y="9.19239" width="1507" height="1507" rx="11.5" transform="rotate(45 1074.8 9.19239)" fill="#D6EBCE" stroke="#A4D5AA" stroke-width="13"/>
<rect opacity="0.5" x="1029.22" y="56" width="1507.4" height="79.3523" transform="rotate(45 1029.22 56)" fill="#A4D5AA"/>
<rect opacity="0.5" x="2089.61" y="1025.61" width="1507.4" height="79.3523" transform="rotate(135 2089.61 1025.61)" fill="#A4D5AA"/>
<rect opacity="0.5" x="927.111" y="159" width="1506.77" height="79.3523" transform="rotate(45 927.111 159)" fill="#A4D5AA"/>
<rect opacity="0.5" x="1986.61" y="923.496" width="1506.77" height="79.3523" transform="rotate(135 1986.61 923.496)" fill="#A4D5AA"/>
<rect opacity="0.5" x="825" y="262" width="1533.01" height="79.3523" transform="rotate(45 825 262)" fill="#A4D5AA"/>
<rect opacity="0.5" x="1883.61" y="821.386" width="1507" height="79.3523" transform="rotate(135 1883.61 821.386)" fill="#A4D5AA"/>
<rect opacity="0.5" x="722.889" y="365" width="1509.75" height="79.3523" transform="rotate(45 722.889 365)" fill="#A4D5AA"/>
<rect opacity="0.5" x="1780.61" y="719.275" width="1509.75" height="79.3523" transform="rotate(135 1780.61 719.275)" fill="#A4D5AA"/>
<rect opacity="0.5" x="620.779" y="468" width="1504.88" height="79.3523" transform="rotate(45 620.779 468)" fill="#A4D5AA"/>
<rect opacity="0.5" x="1677.61" y="617.164" width="1504.88" height="79.3523" transform="rotate(135 1677.61 617.164)" fill="#A4D5AA"/>
<rect opacity="0.5" x="518.668" y="571" width="1500.01" height="79.3523" transform="rotate(45 518.668 571)" fill="#A4D5AA"/>
<rect opacity="0.5" x="1574.61" y="515.054" width="1500.01" height="79.3523" transform="rotate(135 1574.61 515.054)" fill="#A4D5AA"/>
<rect opacity="0.5" x="416.558" y="674" width="1500.79" height="79.3523" transform="rotate(45 416.558 674)" fill="#A4D5AA"/>
<rect opacity="0.5" x="1471.61" y="412.943" width="1500.79" height="79.3523" transform="rotate(135 1471.61 412.943)" fill="#A4D5AA"/>
<rect opacity="0.5" x="314.447" y="777" width="1501.58" height="79.3523" transform="rotate(45 314.447 777)" fill="#A4D5AA"/>
<rect opacity="0.5" x="1368.61" y="310.833" width="1501.58" height="79.3523" transform="rotate(135 1368.61 310.833)" fill="#A4D5AA"/>
<rect opacity="0.5" x="212.337" y="880" width="1496.71" height="79.3523" transform="rotate(45 212.337 880)" fill="#A4D5AA"/>
<rect opacity="0.5" x="1265.61" y="208.722" width="1496.71" height="79.3523" transform="rotate(135 1265.61 208.722)" fill="#A4D5AA"/>
<rect opacity="0.5" x="110.226" y="983" width="1480.52" height="79.3523" transform="rotate(45 110.226 983)" fill="#A4D5AA"/>
<rect opacity="0.5" x="1162.61" y="106.612" width="1480.52" height="79.3523" transform="rotate(135 1162.61 106.612)" fill="#A4D5AA"/>
</svg>
