<?xml version="1.0" encoding="UTF-8"?>
<svg id="Layer_1" data-name="Layer 1" xmlns="http://www.w3.org/2000/svg" version="1.1" viewBox="0 0 2150 1071.8">
  <defs>
    <style>
      .cls-1 {
        fill: #d6ebce;
        stroke: #a4d5aa;
        stroke-miterlimit: 4;
        stroke-width: 13px;
      }

      .cls-2 {
        fill: #a4d5aa;
        isolation: isolate;
        opacity: .5;
        stroke-width: 0px;
      }
    </style>
  </defs>
  <rect class="cls-1" x="321.3" y="321.3" width="1507" height="1507" rx="11.5" ry="11.5" transform="translate(-445.2 1074.8) rotate(-45)"/>
  <rect class="cls-2" x="1494.4" y="-136.7" width="79.4" height="1507.4" transform="translate(13 1265.5) rotate(-45)"/>
  <rect class="cls-2" x="774.9" y="1490.8" width="1507.4" height="79.4" transform="translate(-634.5 1529.2) rotate(-45)"/>
  <rect class="cls-2" x="1392.1" y="-33.6" width="79.4" height="1506.8" transform="translate(-89.6 1223.2) rotate(-45)"/>
  <rect class="cls-2" x="672.4" y="1388.5" width="1506.8" height="79.4" transform="translate(-592.2 1426.5) rotate(-45)"/>
  <rect class="cls-2" x="1299.3" y="65.6" width="79.4" height="1533" transform="translate(-196.2 1190.5) rotate(-45)"/>
  <rect class="cls-2" x="569.2" y="1286.5" width="1507" height="79.4" transform="translate(-550.3 1323.7) rotate(-45)"/>
  <rect class="cls-2" x="1188.9" y="172" width="79.4" height="1509.7" transform="translate(-295.5 1140.2) rotate(-45)"/>
  <rect class="cls-2" x="463.9" y="1185.3" width="1509.7" height="79.4" transform="translate(-509.2 1220.6) rotate(-45)"/>
  <rect class="cls-2" x="1085.1" y="275.7" width="79.4" height="1504.9" transform="translate(-397.5 1096.5) rotate(-45)"/>
  <rect class="cls-2" x="365.1" y="1081.5" width="1504.9" height="79.4" transform="translate(-465.5 1118.6) rotate(-45)"/>
  <rect class="cls-2" x="981.3" y="379.4" width="79.4" height="1500" transform="translate(-499.6 1052.7) rotate(-45)"/>
  <rect class="cls-2" x="266.2" y="977.7" width="1500" height="79.4" transform="translate(-421.7 1016.5) rotate(-45)"/>
  <rect class="cls-2" x="879.4" y="482.3" width="79.4" height="1500.8" transform="translate(-602.4 1010.9) rotate(-45)"/>
  <rect class="cls-2" x="162.6" y="875.8" width="1500.8" height="79.4" transform="translate(-380 913.7) rotate(-45)"/>
  <rect class="cls-2" x="777.6" y="585.2" width="79.4" height="1501.6" transform="translate(-705.3 969.2) rotate(-45)"/>
  <rect class="cls-2" x="58.9" y="774" width="1501.6" height="79.4" transform="translate(-338.2 810.8) rotate(-45)"/>
  <rect class="cls-2" x="673.8" y="688.9" width="79.4" height="1496.7" transform="translate(-807.3 925.4) rotate(-45)"/>
  <rect class="cls-2" x="-40" y="670.2" width="1496.7" height="79.4" transform="translate(-294.4 708.8) rotate(-45)"/>
  <rect class="cls-2" x="565.9" y="794.2" width="79.4" height="1480.5" transform="translate(-907.7 877.7) rotate(-45)"/>
  <rect class="cls-2" x="-129.1" y="562.3" width="1480.5" height="79.4" transform="translate(-246.7 608.4) rotate(-45)"/>
</svg>